<?xml version="1.0" encoding="UTF-8"?>
<svg xmlns="http://www.w3.org/2000/svg" xmlns:xlink="http://www.w3.org/1999/xlink" width="1477px" height="1477px" viewBox="0 0 1477 1477" version="1.1">
<defs>
<clipPath id="clip2">
  <path d="M 0 0 L 1477.09375 0 L 1477.09375 1477.09375 L 0 1477.09375 Z M 0 0 "/>
</clipPath>
<clipPath id="clip3">
  <path d="M 272 229.929688 L 1247 229.929688 L 1247 1200 L 272 1200 Z M 272 229.929688 "/>
</clipPath>
<clipPath id="clip4">
  <path d="M 283 230 L 1246.285156 230 L 1246.285156 1246.082031 L 283 1246.082031 Z M 283 230 "/>
</clipPath>
<clipPath id="clip5">
  <path d="M 501 468 L 1280.601562 468 L 1280.601562 832.589844 L 501 832.589844 Z M 501 468 "/>
</clipPath>
<clipPath id="clip6">
  <path d="M 196.425781 319.636719 L 1160 319.636719 L 1160 1246.082031 L 196.425781 1246.082031 Z M 196.425781 319.636719 "/>
</clipPath>
<clipPath id="clip1">
  <rect x="0" y="0" width="1478" height="1478"/>
</clipPath>
<g id="surface5" clip-path="url(#clip1)">
<g clip-path="url(#clip2)" clip-rule="nonzero">
<path style=" stroke:none;fill-rule:nonzero;fill:rgb(100%,100%,100%);fill-opacity:1;" d="M 0 0 L 1477.09375 0 L 1477.09375 1477.09375 L 0 1477.09375 Z M 0 0 "/>
<path style=" stroke:none;fill-rule:nonzero;fill:rgb(100%,100%,100%);fill-opacity:1;" d="M 0 0 L 1477.09375 0 L 1477.09375 1477.09375 L 0 1477.09375 Z M 0 0 "/>
</g>
<g clip-path="url(#clip3)" clip-rule="nonzero">
<path style=" stroke:none;fill-rule:nonzero;fill:rgb(96.470588%,51.372552%,41.960785%);fill-opacity:1;" d="M 1246.296875 586.132812 C 1246.296875 834.457031 1049.679688 1199.554688 801.136719 1199.554688 C 552.585938 1199.554688 272.117188 884.863281 272.117188 636.539062 C 272.117188 388.222656 557.46875 229.917969 806.011719 229.917969 C 1054.5625 229.917969 1246.296875 337.816406 1246.296875 586.132812 "/>
</g>
<g clip-path="url(#clip4)" clip-rule="nonzero">
<path style=" stroke:none;fill-rule:nonzero;fill:rgb(97.647059%,82.352942%,56.862748%);fill-opacity:1;" d="M 697.074219 812.246094 L 666.578125 812.246094 L 666.578125 814.546875 L 697.074219 814.546875 Z M 697.074219 804.664062 L 666.578125 804.664062 L 666.578125 806.960938 L 697.074219 806.960938 Z M 697.074219 797.085938 L 666.578125 797.085938 L 666.578125 799.386719 L 697.074219 799.386719 Z M 1009.109375 1012.734375 C 1004.570312 1002.699219 999.875 992.320312 994.695312 982.410156 C 980.773438 955.730469 962.949219 931.398438 941.714844 910.070312 C 938.207031 906.554688 934.5625 903.070312 931.03125 899.699219 C 921.839844 890.910156 912.339844 881.835938 904.695312 871.511719 C 892.601562 855.167969 887.339844 837.71875 889.867188 822.363281 C 892.636719 805.605469 904.382812 792.316406 913.746094 784.132812 C 921.8125 777.078125 930.695312 771.371094 939.941406 767.203125 C 939.636719 766.5 939.320312 765.800781 939.015625 765.101562 C 929.554688 769.359375 920.460938 775.191406 912.222656 782.398438 C 902.582031 790.835938 890.476562 804.554688 887.601562 821.984375 C 884.964844 837.960938 890.378906 856.03125 902.84375 872.878906 C 910.605469 883.363281 920.183594 892.511719 929.4375 901.363281 C 932.953125 904.722656 936.597656 908.199219 940.078125 911.695312 C 961.148438 932.855469 978.839844 957.007812 992.652344 983.46875 C 997.796875 993.324219 1002.484375 1003.675781 1007.015625 1013.6875 C 1015.773438 1033.03125 1024.832031 1053.050781 1037.636719 1070.445312 C 1039.609375 1073.125 1041.785156 1075.820312 1044.140625 1078.488281 C 1044.671875 1077.929688 1045.203125 1077.375 1045.730469 1076.808594 C 1043.476562 1074.246094 1041.386719 1071.660156 1039.5 1069.089844 C 1026.828125 1051.875 1017.824219 1031.980469 1009.109375 1012.734375 Z M 1057.53125 821.25 C 1054.035156 816.269531 1050.785156 810.933594 1047.648438 805.777344 C 1040.929688 794.726562 1033.976562 783.296875 1024.113281 774.578125 C 1009.445312 761.613281 988.085938 755.179688 966.976562 757.382812 C 958.316406 758.28125 949.582031 760.609375 941.128906 764.183594 C 941.433594 764.882812 941.75 765.585938 942.054688 766.285156 C 950.292969 762.800781 958.792969 760.542969 967.21875 759.664062 C 987.6875 757.535156 1008.390625 763.753906 1022.582031 776.296875 C 1032.1875 784.785156 1039.050781 796.0625 1045.679688 806.960938 C 1048.835938 812.15625 1052.101562 817.527344 1055.644531 822.570312 C 1071.292969 844.863281 1094.164062 863.570312 1123.605469 878.1875 C 1137.996094 885.339844 1152.933594 891 1167.882812 895.808594 C 1168.222656 895.117188 1168.554688 894.417969 1168.890625 893.714844 C 1153.941406 888.917969 1139.003906 883.265625 1124.632812 876.132812 C 1095.539062 861.683594 1072.957031 843.21875 1057.53125 821.25 Z M 702.488281 741.449219 C 703.917969 737.550781 704.84375 733.238281 704.746094 728.664062 L 701.652344 724.847656 C 701.652344 724.835938 701.679688 724.828125 701.679688 724.828125 L 690.390625 710.902344 C 690.390625 710.902344 677.59375 712.25 674.148438 713.972656 C 670.707031 715.691406 654.265625 724.964844 654.265625 724.964844 L 643.457031 748.289062 C 642.105469 751.210938 643.339844 754.6875 646.253906 756.097656 C 647.710938 756.816406 649.335938 756.851562 650.785156 756.347656 C 650.820312 756.339844 650.855469 756.320312 650.894531 756.3125 C 651.207031 756.1875 651.503906 756.050781 651.800781 755.882812 C 651.863281 755.84375 651.925781 755.808594 651.988281 755.773438 C 652.25 755.601562 652.503906 755.421875 652.726562 755.214844 C 652.800781 755.152344 652.871094 755.101562 652.941406 755.035156 C 653.222656 754.777344 653.484375 754.480469 653.707031 754.15625 C 653.707031 754.148438 653.714844 754.148438 653.714844 754.136719 L 662.945312 740.804688 L 698.046875 740.804688 C 699.59375 740.804688 701.074219 741.027344 702.488281 741.449219 Z M 676.253906 764.039062 L 676.398438 763.851562 C 677.332031 762.511719 678.835938 761.667969 680.464844 761.570312 L 687.316406 761.15625 C 688.664062 761.074219 689.925781 760.5 690.859375 759.53125 C 691.515625 758.847656 692.363281 757.921875 693.296875 756.816406 L 650.003906 756.816406 L 649.480469 757.949219 L 648.582031 764.363281 C 648.121094 767.589844 650.632812 770.464844 653.898438 770.464844 L 656.605469 770.464844 C 658.257812 770.464844 659.824219 769.699219 660.839844 768.398438 C 661.855469 767.09375 663.421875 766.332031 665.085938 766.332031 L 671.867188 766.332031 C 673.609375 766.332031 675.257812 765.476562 676.253906 764.039062 Z M 1043.492188 672.148438 C 1042.683594 672.472656 1041.863281 672.785156 1041.039062 673.074219 C 1042.109375 674.007812 1043.1875 674.941406 1044.25 675.875 C 1044.753906 675.644531 1045.355469 675.777344 1045.679688 676.246094 C 1045.894531 676.550781 1045.914062 676.917969 1045.804688 677.25 C 1055.113281 685.519531 1064.113281 694.089844 1073.007812 702.582031 L 1199.117188 822.839844 C 1199.402344 822.058594 1199.699219 821.277344 1199.988281 820.496094 L 1074.601562 700.917969 C 1064.464844 691.25 1054.195312 681.464844 1043.492188 672.148438 Z M 1041.523438 670.457031 C 1030.199219 660.71875 1018.367188 651.542969 1005.667969 643.644531 C 1005.253906 644.285156 1004.847656 644.921875 1004.417969 645.578125 C 1016.636719 653.179688 1028.058594 661.976562 1039.003906 671.328125 C 1039.851562 671.050781 1040.695312 670.765625 1041.523438 670.457031 Z M 752.769531 899.375 L 631.195312 899.375 C 659.113281 926.117188 682.703125 956.808594 701.371094 990.710938 C 704.601562 996.570312 707.757812 1002.652344 710.816406 1008.546875 C 722.320312 1030.722656 734.21875 1053.597656 752.769531 1070.148438 Z M 752.769531 1073.207031 C 733.019531 1056.269531 720.691406 1032.566406 708.773438 1009.597656 C 705.726562 1003.730469 702.570312 997.65625 699.359375 991.816406 C 680.398438 957.402344 656.289062 926.359375 627.761719 899.375 L 610.890625 899.375 L 610.890625 986.273438 C 622.652344 999.984375 631.945312 1015.90625 637.835938 1032.84375 C 639.652344 1038.046875 641.207031 1043.480469 642.71875 1048.746094 C 646.871094 1063.222656 651.171875 1078.183594 661.027344 1089.441406 C 670.730469 1100.53125 684.0625 1106.441406 698.179688 1112.703125 C 707.855469 1117 717.859375 1121.429688 726.484375 1127.671875 C 738.371094 1136.289062 747.5625 1148.601562 752.769531 1162.355469 Z M 724.207031 860.128906 L 733.839844 860.128906 L 734.800781 851.359375 L 736.671875 844.761719 L 737.410156 842.15625 L 735.664062 843.910156 L 728.660156 850.902344 Z M 571.597656 1048.152344 C 571.292969 1047.453125 570.96875 1046.761719 570.660156 1046.0625 C 568.898438 1061.777344 569.257812 1077.652344 571.597656 1093.234375 Z M 968.683594 1137.351562 C 969.628906 1138.734375 970.617188 1140.066406 971.589844 1141.414062 C 970.960938 1141.84375 970.332031 1142.285156 969.691406 1142.714844 C 968.722656 1141.367188 967.730469 1140.039062 966.789062 1138.652344 C 949.511719 1113.449219 937.289062 1084.839844 925.480469 1057.175781 C 921.9375 1048.890625 918.277344 1040.320312 914.535156 1031.980469 C 899.625 998.691406 879.992188 961.265625 847.535156 936.046875 C 837.8125 928.496094 826.976562 922.125 816.5 915.953125 C 808.339844 911.15625 799.976562 906.1875 792.054688 900.660156 L 792.054688 1096.835938 C 798.492188 1101.25 804.644531 1106.101562 809.859375 1111.96875 C 825.230469 1129.21875 831.734375 1154.65625 827.238281 1180.011719 C 826.128906 1186.277344 824.367188 1192.511719 822.011719 1198.675781 C 821.164062 1198.746094 820.320312 1198.820312 819.464844 1198.882812 C 821.976562 1192.519531 823.828125 1186.078125 824.980469 1179.617188 C 829.339844 1154.945312 823.054688 1130.226562 808.144531 1113.496094 C 803.429688 1108.203125 797.890625 1103.726562 792.054688 1099.640625 L 792.054688 1246.082031 L 752.769531 1246.082031 L 752.769531 1169.75 C 748.398438 1153.785156 738.535156 1139.238281 725.132812 1129.542969 C 716.699219 1123.433594 706.8125 1119.046875 697.246094 1114.808594 C 683.519531 1108.722656 669.328125 1102.425781 659.292969 1090.960938 C 649.09375 1079.304688 644.730469 1064.09375 640.503906 1049.386719 C 639.003906 1044.15625 637.457031 1038.738281 635.65625 1033.597656 C 630.164062 1017.765625 621.644531 1002.832031 610.890625 989.8125 L 610.890625 1099.773438 C 617.429688 1105.9375 624.460938 1111.582031 631.945312 1116.550781 C 639.785156 1121.753906 648.210938 1126.335938 656.359375 1130.773438 C 662.40625 1134.0625 668.644531 1137.457031 674.636719 1141.097656 C 692.054688 1151.683594 703.558594 1162.339844 710.851562 1174.628906 C 713.441406 1178.996094 715.394531 1183.5625 716.734375 1188.191406 C 715.871094 1187.957031 715.007812 1187.714844 714.144531 1187.480469 C 712.867188 1183.507812 711.113281 1179.574219 708.875 1175.800781 C 701.777344 1163.847656 690.519531 1153.445312 673.4375 1143.066406 C 667.503906 1139.453125 661.28125 1136.066406 655.261719 1132.796875 C 647.070312 1128.328125 638.589844 1123.71875 630.667969 1118.464844 C 623.679688 1113.828125 617.066406 1108.605469 610.890625 1102.929688 L 610.890625 1246.082031 L 571.597656 1246.082031 L 571.597656 1105.882812 C 566.957031 1084.777344 565.976562 1062.882812 568.933594 1041.378906 L 569.539062 1036.996094 L 571.148438 1041.117188 C 571.292969 1041.488281 571.453125 1041.855469 571.597656 1042.222656 L 571.597656 958.347656 C 562.503906 954.636719 551.578125 952.792969 541.773438 958.21875 C 527.644531 966.066406 523.921875 984.582031 522.152344 1001.664062 C 519.507812 1027.164062 517.421875 1054.433594 520.074219 1081.148438 C 520.15625 1081.949219 520.28125 1082.710938 520.371094 1083.503906 C 519.507812 1082.800781 518.644531 1082.109375 517.789062 1081.398438 C 517.789062 1081.390625 517.78125 1081.382812 517.78125 1081.371094 C 515.109375 1054.460938 517.203125 1027.046875 519.867188 1001.429688 C 521.703125 983.757812 525.605469 964.5625 540.660156 956.21875 C 550.902344 950.527344 562.164062 952.210938 571.597656 955.882812 L 571.597656 899.375 L 519.921875 899.375 C 490.746094 925.011719 469.820312 957.410156 460.230469 992.472656 C 457.445312 1002.644531 455.726562 1012.996094 454.933594 1023.347656 C 454.222656 1022.617188 453.511719 1021.898438 452.8125 1021.164062 C 453.675781 1011.332031 455.367188 1001.519531 458.011719 991.863281 C 467.507812 957.160156 487.949219 925.019531 516.441406 899.375 L 362.328125 899.375 C 361.941406 901.011719 361.539062 902.636719 361.152344 904.273438 C 360.574219 903.367188 359.980469 902.46875 359.414062 901.558594 C 359.585938 900.832031 359.773438 900.105469 359.945312 899.375 L 283.699219 899.375 L 283.699219 860.128906 L 369.855469 860.128906 C 371.476562 853.957031 373.09375 847.820312 374.710938 841.734375 C 388.480469 789.980469 402.71875 736.472656 406.242188 682.308594 C 412.3125 588.996094 386.035156 498.273438 353.9375 422.382812 C 354.496094 421.726562 355.0625 421.082031 355.621094 420.433594 C 388.03125 496.792969 414.671875 588.277344 408.546875 682.460938 C 405.003906 736.839844 390.738281 790.464844 376.941406 842.328125 C 375.371094 848.214844 373.804688 854.164062 372.230469 860.128906 L 713.011719 860.128906 C 713.101562 859.695312 713.191406 859.265625 713.289062 858.835938 C 713.316406 858.726562 713.335938 858.617188 713.359375 858.511719 C 713.441406 858.144531 713.523438 857.773438 713.605469 857.398438 C 713.667969 857.101562 713.730469 856.804688 713.800781 856.507812 C 713.863281 856.21875 713.929688 855.933594 713.992188 855.636719 C 714.117188 855.050781 714.25 854.46875 714.378906 853.882812 C 714.394531 853.804688 714.414062 853.714844 714.429688 853.632812 C 714.558594 853.09375 714.675781 852.5625 714.792969 852.03125 C 714.828125 851.898438 714.855469 851.761719 714.890625 851.628906 C 714.996094 851.132812 715.113281 850.640625 715.222656 850.15625 C 715.25 850.039062 715.277344 849.921875 715.304688 849.804688 C 715.4375 849.21875 715.566406 848.652344 715.699219 848.105469 C 715.71875 848.042969 715.726562 847.980469 715.746094 847.917969 C 715.851562 847.441406 715.960938 846.992188 716.066406 846.550781 C 716.105469 846.417969 716.132812 846.28125 716.167969 846.148438 C 716.257812 845.761719 716.347656 845.390625 716.4375 845.042969 C 716.464844 844.933594 716.492188 844.828125 716.519531 844.726562 C 716.625 844.289062 716.734375 843.863281 716.832031 843.480469 C 716.839844 843.453125 716.851562 843.433594 716.859375 843.398438 C 716.949219 843.054688 717.03125 842.742188 717.113281 842.464844 C 717.136719 842.375 717.164062 842.300781 717.183594 842.222656 C 717.246094 842.003906 717.308594 841.808594 717.363281 841.636719 C 717.382812 841.574219 717.398438 841.503906 717.425781 841.4375 C 717.488281 841.230469 717.5625 841.050781 717.605469 840.9375 C 717.613281 840.9375 717.613281 840.925781 717.613281 840.925781 C 717.695312 840.738281 717.839844 840.496094 718.019531 840.21875 C 718.082031 840.117188 718.164062 840.011719 718.234375 839.902344 C 718.378906 839.695312 718.53125 839.480469 718.710938 839.238281 C 718.8125 839.09375 718.929688 838.949219 719.035156 838.796875 C 719.226562 838.554688 719.433594 838.292969 719.648438 838.015625 C 719.773438 837.855469 719.898438 837.703125 720.035156 837.53125 C 720.285156 837.226562 720.546875 836.902344 720.824219 836.570312 C 720.953125 836.417969 721.078125 836.273438 721.203125 836.121094 C 721.554688 835.699219 721.921875 835.257812 722.308594 834.816406 C 722.371094 834.734375 722.4375 834.664062 722.5 834.59375 C 723.957031 832.902344 725.59375 831.089844 727.203125 829.316406 C 727.21875 829.308594 727.230469 829.289062 727.246094 829.273438 C 727.28125 829.226562 727.328125 829.191406 727.363281 829.148438 C 728.785156 827.601562 730.171875 826.121094 731.421875 824.824219 C 731.554688 824.691406 731.691406 824.546875 731.824219 824.410156 C 732.023438 824.207031 732.210938 824.007812 732.398438 823.820312 C 732.582031 823.628906 732.75 823.460938 732.921875 823.28125 C 733.074219 823.136719 733.21875 822.984375 733.363281 822.847656 C 733.390625 822.8125 733.425781 822.777344 733.460938 822.742188 C 729.847656 812.265625 727.320312 801.445312 726.085938 790.492188 C 724.242188 774.257812 726.535156 762.367188 733.101562 754.148438 C 739.65625 745.925781 749.738281 742.179688 759.496094 738.546875 C 762.761719 737.335938 766.144531 736.085938 769.308594 734.683594 C 793.347656 724.054688 810.195312 702.492188 826.480469 681.644531 C 841.671875 662.191406 857.382812 642.082031 879.082031 630.3125 C 908.925781 614.128906 949.222656 615.253906 986.886719 633.304688 C 992.679688 636.082031 998.265625 639.164062 1003.707031 642.460938 C 1003.300781 643.097656 1002.886719 643.734375 1002.457031 644.402344 C 997.097656 641.148438 991.589844 638.113281 985.898438 635.378906 C 948.890625 617.644531 909.375 616.5 880.179688 632.332031 C 858.902344 643.871094 843.34375 663.792969 828.296875 683.054688 C 811.832031 704.125 794.804688 725.925781 770.246094 736.789062 C 767.015625 738.214844 763.597656 739.484375 760.296875 740.714844 C 750.835938 744.226562 741.0625 747.867188 734.902344 755.585938 C 728.738281 763.304688 726.601562 774.632812 728.371094 790.230469 C 729.558594 800.683594 731.914062 811.023438 735.296875 821.042969 C 739.9375 817.789062 763.816406 815.167969 763.816406 815.167969 L 772.339844 801.554688 L 775.667969 796.242188 L 815.078125 816.855469 C 815.078125 816.855469 810.832031 824.527344 806.046875 831.472656 C 806.039062 831.492188 806.03125 831.511719 806.019531 831.519531 C 805.527344 832.238281 805.03125 832.9375 804.535156 833.632812 C 804.511719 833.667969 804.484375 833.695312 804.464844 833.730469 C 803.980469 834.394531 803.484375 835.050781 803.007812 835.679688 C 802.972656 835.722656 802.9375 835.769531 802.898438 835.8125 C 802.421875 836.425781 801.945312 837.019531 801.480469 837.574219 C 801.441406 837.621094 801.40625 837.664062 801.371094 837.710938 C 800.902344 838.257812 800.445312 838.78125 799.996094 839.253906 C 799.960938 839.292969 799.921875 839.328125 799.886719 839.363281 C 799.4375 839.832031 798.996094 840.269531 798.574219 840.648438 C 798.546875 840.667969 798.519531 840.683594 798.492188 840.710938 C 798.0625 841.089844 797.648438 841.421875 797.253906 841.683594 C 797.234375 841.699219 797.214844 841.699219 797.199219 841.71875 C 796.800781 841.976562 796.40625 842.183594 796.046875 842.3125 C 793.746094 843.121094 790.425781 843.378906 787.179688 843.398438 C 781.765625 843.433594 776.550781 842.769531 776.550781 842.769531 L 769.605469 857.875 C 769.535156 858.035156 769.410156 858.167969 769.320312 858.324219 C 769.210938 858.484375 769.128906 858.664062 769.003906 858.808594 C 768.96875 858.84375 768.921875 858.871094 768.886719 858.90625 C 768.671875 859.132812 768.4375 859.347656 768.175781 859.515625 C 768.140625 859.535156 768.105469 859.542969 768.078125 859.5625 C 767.796875 859.734375 767.5 859.875 767.1875 859.964844 C 767.125 859.984375 767.050781 859.984375 766.988281 859.992188 C 766.703125 860.066406 766.40625 860.128906 766.089844 860.128906 L 792.054688 860.128906 L 792.054688 897.839844 C 800.292969 903.6875 809.085938 908.925781 817.667969 913.976562 C 828.207031 920.175781 839.109375 926.59375 848.945312 934.230469 C 881.808594 959.757812 901.601562 997.496094 916.640625 1031.039062 C 920.390625 1039.394531 924.050781 1047.972656 927.59375 1056.277344 C 939.367188 1083.835938 951.535156 1112.335938 968.683594 1137.351562 Z M 868.472656 1185.71875 L 903.617188 1185.71875 L 903.617188 1151.304688 L 864.792969 1160.972656 Z M 1113.804688 1185.71875 L 1148.949219 1185.71875 L 1148.949219 1151.304688 L 1110.117188 1160.972656 Z M 1147.050781 429.816406 C 1136.945312 398.789062 1135.316406 365.050781 1141.835938 333.035156 C 1141.179688 332.449219 1140.523438 331.867188 1139.859375 331.292969 C 1132.949219 364.078125 1134.496094 398.71875 1144.867188 430.523438 Z M 478.917969 571.019531 C 477.839844 597.984375 476.5 631.523438 498.632812 650.511719 C 507.484375 658.09375 519.355469 662.046875 531.808594 662.046875 C 539.210938 662.046875 546.820312 660.65625 554.125 657.796875 C 574.691406 649.746094 588.746094 632.648438 596.914062 619.71875 C 603.507812 609.277344 608.777344 597.875 613.867188 586.832031 C 620.367188 572.742188 627.085938 558.179688 636.585938 545.707031 C 647.773438 531.007812 662.691406 519.351562 677.117188 508.085938 C 685.554688 501.492188 694.277344 494.679688 702.21875 487.292969 C 711.949219 478.246094 720.890625 467.929688 729 456.5 C 732.625 460.824219 737.335938 463.6875 743.472656 464.535156 C 748.5 465.234375 753.445312 464.902344 758.203125 463.753906 C 760.164062 464.191406 764.652344 465.34375 769.398438 467.617188 C 774.527344 470.070312 791.9375 516.066406 792.386719 514.691406 C 797.242188 499.765625 827.144531 462.917969 818.808594 449.449219 C 811.652344 437.867188 804.148438 424.21875 802.917969 412.238281 C 807.9375 410.289062 811.695312 406.453125 812.835938 401.933594 C 813.996094 397.34375 813.871094 392.230469 809.132812 390.476562 C 815.796875 373.59375 819.664062 358.777344 801.820312 355.09375 C 792.070312 353.082031 784.535156 351.949219 773.367188 350.1875 C 781.703125 310.742188 783.988281 270.136719 785.378906 230.304688 C 784.605469 230.332031 783.84375 230.34375 783.070312 230.367188 C 781.683594 270.101562 779.398438 310.570312 771.089844 349.820312 C 767.609375 349.269531 763.789062 348.660156 759.433594 347.941406 C 737.183594 344.257812 716.90625 361.363281 716.894531 383.898438 C 716.886719 410.316406 716.90625 439.554688 727.535156 454.605469 C 719.40625 466.125 710.429688 476.519531 700.652344 485.605469 C 692.773438 492.925781 684.097656 499.710938 675.695312 506.269531 C 661.152344 517.628906 646.117188 529.378906 634.75 544.3125 C 625.109375 556.984375 618.328125 571.675781 611.769531 585.871094 C 606.71875 596.84375 601.484375 608.179688 594.960938 618.496094 C 586.984375 631.128906 573.269531 647.832031 553.277344 655.652344 C 534.464844 663.019531 513.609375 660.3125 500.136719 648.757812 C 478.839844 630.5 480.160156 597.570312 481.222656 571.117188 C 483.613281 511.203125 478.613281 463.464844 465.484375 420.882812 C 457.46875 394.90625 446.074219 370.960938 431.972656 350.050781 C 431.351562 350.511719 430.742188 350.96875 430.121094 351.425781 C 444.070312 372.128906 455.347656 395.832031 463.28125 421.558594 C 476.339844 463.886719 481.304688 511.382812 478.917969 571.019531 Z M 1241.140625 518.722656 C 1241.007812 517.914062 1240.863281 517.125 1240.730469 516.335938 C 1226.4375 513.441406 1214.746094 500.871094 1210.816406 496.1875 C 1191.390625 473 1180.632812 442.359375 1181.308594 412.121094 C 1181.542969 401.78125 1183.144531 391.457031 1185.921875 381.445312 C 1185.347656 380.65625 1184.789062 379.847656 1184.203125 379.066406 C 1181.046875 389.804688 1179.257812 400.925781 1179.007812 412.070312 C 1178.324219 442.851562 1189.269531 474.050781 1209.054688 497.664062 C 1213.207031 502.621094 1225.71875 516 1241.140625 518.722656 Z M 1200.007812 565.691406 C 1167.171875 542.472656 1140.820312 509.15625 1125.792969 471.875 C 1121.015625 460.003906 1117.25 447.496094 1113.597656 435.402344 C 1109.207031 420.792969 1104.648438 405.691406 1098.261719 391.527344 C 1094.574219 383.34375 1090.214844 375.347656 1085.996094 367.609375 C 1080.582031 357.671875 1074.96875 347.394531 1070.796875 336.71875 C 1063.828125 318.875 1060.832031 299.628906 1061.777344 280.570312 C 1061.019531 280.203125 1060.265625 279.851562 1059.511719 279.5 C 1058.402344 299.1875 1061.445312 319.109375 1068.65625 337.546875 C 1072.882812 348.363281 1078.523438 358.707031 1083.980469 368.714844 C 1088.171875 376.414062 1092.515625 384.375 1096.167969 392.472656 C 1102.488281 406.5 1107.023438 421.53125 1111.394531 436.070312 C 1115.054688 448.207031 1118.839844 460.761719 1123.660156 472.738281 C 1138.851562 510.421875 1165.488281 544.097656 1198.675781 567.566406 C 1213.296875 577.902344 1229.371094 586.382812 1246.242188 592.78125 C 1246.257812 591.964844 1246.257812 591.144531 1246.269531 590.335938 C 1229.863281 584.027344 1214.242188 575.753906 1200.007812 565.691406 Z M 1152.375 669.28125 C 1147.492188 665.652344 1142.609375 662.03125 1137.769531 658.382812 C 1096.996094 627.644531 1052.449219 589.285156 1031.199219 537.84375 C 1027.394531 528.636719 1024.238281 518.804688 1021.179688 509.289062 C 1013.789062 486.269531 1006.144531 462.457031 988.722656 445.449219 C 978.453125 435.421875 965.554688 428.628906 953.089844 422.050781 C 945.679688 418.144531 938.019531 414.109375 931.003906 409.4375 C 900.722656 389.28125 878.445312 354.679688 868.292969 311.992188 C 861.976562 285.457031 860.628906 258.332031 861.359375 231.796875 C 860.59375 231.742188 859.820312 231.699219 859.054688 231.652344 C 858.316406 258.386719 859.675781 285.726562 866.050781 312.519531 C 876.339844 355.777344 898.960938 390.882812 929.726562 411.351562 C 936.839844 416.085938 944.554688 420.148438 952.011719 424.082031 C 964.332031 430.578125 977.078125 437.300781 987.105469 447.09375 C 1004.121094 463.707031 1011.683594 487.238281 1018.984375 509.992188 C 1022.0625 519.550781 1025.226562 529.425781 1029.066406 538.714844 C 1050.535156 590.679688 1095.359375 629.289062 1136.386719 660.214844 C 1141.226562 663.871094 1146.117188 667.492188 1151.011719 671.125 C 1177.46875 690.757812 1204.78125 711.042969 1226.125 736.5 C 1226.355469 735.574219 1226.582031 734.65625 1226.816406 733.734375 C 1205.464844 708.671875 1178.503906 688.664062 1152.375 669.28125 Z M 559.410156 314.949219 C 568.820312 328.867188 582.585938 339.972656 598.183594 346.214844 C 603.03125 348.164062 609.101562 349.910156 615.214844 349.910156 C 619.660156 349.910156 624.121094 348.992188 628.15625 346.546875 C 639.28125 339.808594 641.59375 324.976562 642.367188 314.40625 C 643.886719 293.5625 642.816406 272.816406 639.210938 252.417969 C 638.464844 252.617188 637.726562 252.832031 636.980469 253.039062 C 640.523438 273.175781 641.566406 293.652344 640.074219 314.246094 C 639.335938 324.300781 637.175781 338.390625 626.960938 344.582031 C 618.183594 349.898438 606.921875 347.25 599.035156 344.085938 C 583.863281 338.003906 570.472656 327.195312 561.328125 313.664062 C 558.621094 309.65625 556.199219 305.296875 553.851562 301.09375 C 550.9375 295.855469 547.953125 290.507812 544.328125 285.636719 C 543.601562 285.953125 542.882812 286.265625 542.152344 286.589844 C 545.839844 291.460938 548.890625 296.886719 551.839844 302.207031 C 554.203125 306.457031 556.648438 310.859375 559.410156 314.949219 Z M 1197.082031 633.554688 C 1186.875 627.777344 1176.011719 622.925781 1165.5 618.234375 C 1157.46875 614.660156 1149.15625 610.957031 1141.234375 606.871094 C 1119.136719 595.484375 1104.089844 582.671875 1095.242188 567.710938 C 1083.089844 547.191406 1082.273438 522.433594 1081.480469 498.5 C 1081.066406 486.097656 1080.644531 473.285156 1078.683594 461.039062 C 1073.496094 428.59375 1056.308594 397.59375 1031.539062 375.976562 C 1023.742188 369.171875 1014.957031 362.957031 1006.457031 356.945312 C 986.734375 342.992188 966.339844 328.558594 957.949219 306.265625 C 950.4375 286.292969 954.621094 265.097656 964.496094 246.910156 C 963.730469 246.730469 962.957031 246.542969 962.191406 246.371094 C 952.246094 264.972656 948.097656 286.617188 955.796875 307.078125 C 964.429688 330.023438 985.117188 344.660156 1005.125 358.824219 C 1013.582031 364.804688 1022.324219 370.988281 1030.03125 377.710938 C 1054.394531 398.976562 1071.300781 429.484375 1076.417969 461.398438 C 1078.351562 473.5 1078.773438 486.242188 1079.179688 498.570312 C 1079.980469 522.792969 1080.808594 547.855469 1093.253906 568.878906 C 1102.335938 584.226562 1117.6875 597.328125 1140.171875 608.917969 C 1148.160156 613.035156 1156.496094 616.746094 1164.5625 620.339844 C 1175.023438 625.011719 1185.839844 629.828125 1195.949219 635.558594 C 1212.203125 644.769531 1226.933594 656.484375 1239.585938 670.152344 C 1239.730469 669.191406 1239.875 668.230469 1240.007812 667.257812 C 1227.488281 653.996094 1213.019531 642.585938 1197.082031 633.554688 Z M 535.175781 448.808594 C 536.972656 457.183594 538.824219 465.835938 542.558594 473.726562 C 547.324219 483.84375 554.625 491.023438 563.097656 493.941406 C 566.113281 494.976562 569.160156 495.453125 572.191406 495.453125 C 585.933594 495.453125 599.296875 485.710938 607.066406 474.894531 C 612.527344 467.292969 616.527344 458.695312 620.394531 450.375 C 623.445312 443.804688 626.609375 437.011719 630.460938 430.792969 C 635.730469 422.265625 642.476562 414.550781 648.996094 407.074219 C 652.511719 403.039062 656.144531 398.871094 659.535156 394.609375 C 690.671875 355.382812 705.1875 301.128906 699.375 245.742188 C 699.160156 243.613281 698.898438 241.484375 698.628906 239.355469 C 697.867188 239.480469 697.109375 239.625 696.355469 239.757812 C 696.625 241.835938 696.875 243.910156 697.09375 245.984375 C 702.839844 300.777344 688.496094 354.417969 657.726562 393.183594 C 654.375 397.40625 650.757812 401.546875 647.257812 405.554688 C 640.675781 413.101562 633.867188 420.902344 628.5 429.589844 C 624.578125 435.925781 621.386719 442.773438 618.300781 449.402344 C 614.476562 457.625 610.53125 466.125 605.195312 473.554688 C 596.195312 486.082031 579.414062 497.125 563.855469 491.757812 C 553.214844 488.101562 547.253906 478.273438 544.636719 472.746094 C 541.027344 465.089844 539.195312 456.574219 537.421875 448.324219 L 536.8125 445.496094 C 526.898438 399.9375 510.027344 355.253906 487.355469 314.136719 C 486.691406 314.515625 486.015625 314.894531 485.351562 315.269531 C 507.90625 356.191406 524.707031 400.65625 534.5625 445.980469 Z M 305.21875 636.746094 C 311.445312 653.496094 317.882812 670.808594 317.828125 688.679688 C 317.773438 706.011719 311.597656 722.824219 305.625 739.078125 C 301.957031 749.078125 298.222656 759.3125 295.820312 769.800781 C 296.296875 771.191406 296.800781 772.585938 297.289062 773.976562 C 299.554688 762.351562 303.710938 750.976562 307.792969 739.871094 C 313.828125 723.425781 320.078125 706.425781 320.132812 688.691406 C 320.183594 670.394531 313.675781 652.882812 307.378906 635.945312 C 305.578125 631.101562 303.71875 626.097656 302.046875 621.164062 C 292.800781 593.867188 288.339844 564.808594 288.664062 535.839844 C 287.871094 538.175781 287.132812 540.53125 286.398438 542.886719 C 286.8125 569.761719 291.289062 596.582031 299.859375 621.902344 C 301.542969 626.863281 303.414062 631.882812 305.21875 636.746094 Z M 1021.539062 869.734375 C 1027.222656 869.355469 1031.675781 874.550781 1035.722656 879.894531 C 1053.105469 902.871094 1072.738281 919.671875 1094.054688 929.835938 C 1110.351562 937.609375 1127.789062 941.273438 1144.410156 940.71875 C 1144.847656 939.9375 1145.289062 939.152344 1145.730469 938.371094 C 1129.066406 939.179688 1111.464844 935.597656 1095.042969 927.761719 C 1074.0625 917.761719 1054.726562 901.183594 1037.558594 878.503906 C 1034.285156 874.191406 1028.84375 866.949219 1021.386719 867.433594 C 1014.417969 867.890625 1010 874.972656 1009.910156 881.28125 C 1009.8125 888.019531 1013.429688 894.011719 1016.59375 898.488281 C 1023.445312 908.191406 1032.25 916.636719 1040.769531 924.804688 C 1052.917969 936.46875 1065.492188 948.527344 1071.976562 964.078125 C 1075.796875 973.242188 1077.351562 983.34375 1078.855469 993.109375 C 1079.375 996.507812 1079.898438 999.894531 1080.511719 1003.246094 C 1081.761719 1010.128906 1083.792969 1018.898438 1087.929688 1026.976562 C 1088.453125 1026.292969 1088.972656 1025.609375 1089.484375 1024.925781 C 1085.816406 1017.378906 1083.945312 1009.265625 1082.777344 1002.839844 C 1082.175781 999.5 1081.652344 996.136719 1081.128906 992.769531 C 1079.609375 982.859375 1078.035156 972.625 1074.097656 963.191406 C 1067.433594 947.195312 1054.679688 934.964844 1042.359375 923.140625 C 1033.925781 915.054688 1025.199219 906.679688 1018.472656 897.15625 C 1015.515625 892.980469 1012.125 887.390625 1012.214844 881.316406 C 1012.285156 876.003906 1016.054688 870.09375 1021.539062 869.734375 Z M 595.402344 289.457031 C 597.507812 289.457031 599.574219 289.140625 601.527344 288.503906 C 611.242188 285.339844 616.574219 274.960938 617.554688 266.09375 C 617.832031 263.585938 617.839844 261.0625 617.671875 258.554688 C 616.914062 258.789062 616.167969 259.03125 615.414062 259.265625 C 615.53125 261.46875 615.511719 263.660156 615.269531 265.84375 C 614.371094 273.984375 609.550781 283.472656 600.816406 286.320312 C 593.460938 288.71875 584.351562 285.871094 577.605469 279.058594 C 575.984375 277.425781 574.546875 275.644531 573.234375 273.777344 C 572.503906 274.054688 571.769531 274.332031 571.039062 274.613281 C 572.515625 276.761719 574.125 278.816406 575.96875 280.675781 C 581.5625 286.320312 588.703125 289.457031 595.402344 289.457031 Z M 322.855469 835.582031 C 323.269531 836.433594 323.675781 837.296875 324.097656 838.152344 C 353.234375 782.441406 368.929688 720.398438 369.570312 657.375 C 370.242188 590.460938 353.945312 524.304688 322.425781 465.359375 C 321.957031 466.097656 321.472656 466.835938 321.011719 467.570312 C 351.949219 525.894531 367.929688 591.261719 367.265625 657.359375 C 366.636719 719.445312 351.320312 780.582031 322.855469 835.582031 Z M 1113.175781 969.9375 C 1117.84375 967.800781 1123.230469 966.667969 1129.238281 966.53125 C 1129.714844 965.757812 1130.179688 964.996094 1130.648438 964.222656 C 1123.734375 964.203125 1117.546875 965.398438 1112.222656 967.851562 C 1104.035156 971.601562 1098.011719 978.4375 1096.097656 986.136719 C 1094.261719 993.523438 1096.113281 1001.898438 1101.058594 1009.167969 C 1101.535156 1008.484375 1102.023438 1007.808594 1102.5 1007.128906 C 1098.289062 1000.578125 1096.714844 993.191406 1098.335938 986.6875 C 1100.078125 979.660156 1105.628906 973.40625 1113.175781 969.9375 Z M 627.464844 1146.855469 C 640.875 1152.148438 653.175781 1160.238281 663.539062 1170.289062 C 661.460938 1169.4375 659.375 1168.574219 657.296875 1167.695312 C 648.1875 1159.8125 637.808594 1153.417969 626.621094 1149.003906 C 625.136719 1148.421875 623.578125 1147.890625 622.277344 1148.332031 C 621.414062 1148.617188 620.84375 1149.285156 620.46875 1150.128906 C 619.785156 1149.769531 619.09375 1149.398438 618.398438 1149.03125 C 619.019531 1147.703125 620.027344 1146.660156 621.539062 1146.148438 C 623.578125 1145.457031 625.667969 1146.15625 627.464844 1146.855469 "/>
</g>
<g clip-path="url(#clip5)" clip-rule="nonzero">
<path style=" stroke:none;fill-rule:nonzero;fill:rgb(93.725491%,17.254902%,37.254903%);fill-opacity:1;" d="M 1280.640625 538.617188 C 1280.550781 543.613281 1277.582031 548.105469 1273.03125 550.15625 C 1268.996094 551.980469 1264.308594 551.601562 1260.613281 549.167969 L 1166.515625 481.039062 L 1175.050781 468.101562 L 1274.832031 527.601562 C 1278.527344 530.035156 1280.722656 534.195312 1280.640625 538.617188 Z M 905.183594 549.75 L 894.722656 690.398438 C 894.101562 698.472656 891.199219 706.203125 886.332031 712.6875 L 815.078125 816.855469 L 775.667969 796.242188 L 823.71875 687.773438 L 834.648438 544.449219 C 836.363281 521.984375 858.398438 506.835938 880.011719 513.269531 C 895.9375 518.003906 906.414062 533.191406 905.183594 549.75 Z M 762.589844 607.140625 L 753.113281 526.566406 C 751.644531 514.152344 758.445312 503.726562 768.140625 498.902344 C 768.140625 498.902344 771.289062 550.925781 786.179688 590.308594 C 797.496094 620.210938 823.757812 640.976562 823.757812 640.976562 C 820.714844 644.878906 817.136719 648.390625 813.0625 651.390625 L 706.066406 730.292969 L 689.320312 709.632812 Z M 697.074219 799.386719 L 666.578125 799.386719 L 666.578125 797.085938 L 697.074219 797.085938 Z M 697.074219 806.960938 L 666.578125 806.960938 L 666.578125 804.664062 L 697.074219 804.664062 Z M 697.074219 814.546875 L 666.578125 814.546875 L 666.578125 812.246094 L 697.074219 812.246094 Z M 709.214844 799.972656 L 711.292969 796.917969 C 712.605469 794.976562 713.316406 792.683594 713.316406 790.339844 L 713.316406 753.75 C 713.316406 747.632812 706.472656 740.804688 698.046875 740.804688 L 662.945312 740.804688 L 653.714844 754.136719 C 652.054688 756.546875 648.878906 757.382812 646.253906 756.097656 C 643.339844 754.6875 642.105469 751.210938 643.457031 748.289062 L 646.855469 740.964844 C 641.523438 741.738281 636.917969 745.269531 634.867188 750.363281 L 631.808594 757.964844 L 644.9375 767.859375 L 650.003906 756.816406 L 699.503906 756.816406 L 699.503906 787.058594 L 698.988281 787.867188 L 643.390625 787.867188 C 639.003906 774.113281 626.117188 764.140625 610.890625 764.140625 C 595.65625 764.140625 582.765625 774.113281 578.378906 787.867188 L 547.109375 787.867188 C 534.375 787.867188 522.582031 794.546875 516.027344 805.453125 L 501.726562 829.273438 L 596.816406 829.273438 C 601.113281 831.222656 605.863281 832.335938 610.890625 832.335938 C 615.90625 832.335938 620.65625 831.222656 624.957031 829.273438 L 709.089844 829.273438 C 716.535156 829.273438 721.222656 821.265625 717.570312 814.78125 L 709.214844 799.972656 "/>
</g>
<path style=" stroke:none;fill-rule:nonzero;fill:rgb(96.862745%,79.215688%,7.450981%);fill-opacity:1;" d="M 1135.054688 829.273438 L 807.53125 829.273438 C 803.609375 835.222656 799.03125 841.269531 796.046875 842.3125 C 789.90625 844.457031 776.550781 842.769531 776.550781 842.769531 L 769.605469 857.875 C 768.976562 859.246094 767.601562 860.128906 766.089844 860.128906 L 1135.054688 860.128906 Z M 243.589844 829.273438 L 243.589844 860.128906 L 713.011719 860.128906 C 714.703125 852.3125 716.894531 842.542969 717.605469 840.9375 C 718.324219 839.320312 722.859375 834.054688 727.246094 829.273438 Z M 724.207031 860.128906 L 733.839844 860.128906 L 734.800781 851.359375 L 737.410156 842.15625 L 728.660156 850.902344 Z M 1127.921875 437.085938 L 1119.398438 450.023438 L 1188.816406 495.722656 L 1197.34375 482.78125 Z M 503.140625 398.132812 C 505.074219 400.53125 508.597656 400.917969 511 398.976562 C 513.410156 397.046875 513.789062 393.53125 511.855469 391.132812 C 509.921875 388.726562 506.402344 388.347656 503.992188 390.28125 C 501.59375 392.210938 501.207031 395.726562 503.140625 398.132812 Z M 534.832031 437.507812 C 536.765625 439.90625 540.292969 440.292969 542.691406 438.359375 C 545.101562 436.429688 545.480469 432.90625 543.546875 430.507812 C 541.613281 428.097656 538.097656 427.722656 535.6875 429.652344 C 533.285156 431.585938 532.898438 435.097656 534.832031 437.507812 Z M 469.871094 416.003906 C 465.539062 410.621094 466.390625 402.75 471.777344 398.410156 L 472.058594 398.195312 L 546.648438 338.265625 C 552.378906 333.664062 560.75 334.5625 565.363281 340.285156 L 618.742188 406.605469 C 623.347656 412.328125 622.4375 420.695312 616.707031 425.296875 L 596.859375 441.246094 L 585.519531 427.144531 L 600.324219 415.257812 L 611.664062 429.347656 L 613.460938 427.910156 L 543.394531 340.871094 L 541.605469 342.316406 L 552.945312 356.40625 L 538.152344 368.292969 L 526.800781 354.203125 L 525.011719 355.652344 L 595.070312 442.683594 L 590.886719 446.042969 C 587.964844 448.394531 584.476562 449.925781 580.769531 450.488281 L 578.53125 450.832031 L 513.859375 460.707031 C 509.445312 461.378906 505 459.65625 502.203125 456.179688 Z M 901.703125 1183.507812 L 867.402344 1183.507812 C 862.976562 1183.507812 859.316406 1187.03125 859.234375 1191.441406 C 859.152344 1195.558594 858.667969 1200.09375 857.03125 1201.910156 C 854.117188 1205.152344 813.359375 1202 804.484375 1231.8125 L 849.378906 1237.996094 C 858.390625 1239.234375 867.527344 1239.144531 876.511719 1237.734375 L 914.09375 1231.8125 L 910.046875 1191.066406 C 909.625 1186.777344 906.019531 1183.507812 901.703125 1183.507812 Z M 1154.410156 1191.066406 L 1158.449219 1231.8125 L 1135.9375 1235.570312 C 1118.839844 1238.417969 1101.394531 1238.425781 1084.296875 1235.585938 L 1080.222656 1231.8125 C 1086.625 1202 1098.480469 1205.152344 1101.382812 1201.910156 C 1103.03125 1200.09375 1103.515625 1195.558594 1103.585938 1191.441406 C 1103.667969 1187.03125 1107.335938 1183.507812 1111.761719 1183.507812 L 1146.0625 1183.507812 C 1150.371094 1183.507812 1153.976562 1186.777344 1154.410156 1191.066406 "/>
<g clip-path="url(#clip6)" clip-rule="nonzero">
<path style=" stroke:none;fill-rule:nonzero;fill:rgb(18.82353%,32.156864%,41.568628%);fill-opacity:1;" d="M 1045.679688 676.246094 C 1045.320312 675.722656 1044.597656 675.589844 1044.078125 675.949219 C 1034.796875 682.347656 1023.5 685.382812 1012.25 684.511719 C 1011.601562 684.457031 1011.0625 684.933594 1011.019531 685.570312 C 1010.964844 686.199219 1011.441406 686.757812 1012.070312 686.800781 C 1013.390625 686.902344 1014.714844 686.957031 1016.035156 686.957031 C 1026.46875 686.957031 1036.757812 683.785156 1045.382812 677.84375 C 1045.902344 677.484375 1046.039062 676.765625 1045.679688 676.246094 Z M 988.695312 669.351562 C 997.996094 674.277344 1008.625 676.757812 1019.246094 676.757812 C 1028.160156 676.757812 1037.070312 675.003906 1045.164062 671.472656 C 1045.742188 671.222656 1046.011719 670.539062 1045.757812 669.964844 C 1045.5 669.378906 1044.824219 669.109375 1044.238281 669.363281 C 1027.144531 676.828125 1006.269531 676.046875 989.773438 667.324219 C 989.207031 667.027344 988.515625 667.242188 988.21875 667.796875 C 987.921875 668.363281 988.128906 669.058594 988.695312 669.351562 Z M 954.855469 791.128906 C 943.828125 772.574219 935.402344 752.59375 929.824219 731.746094 C 929.664062 731.125 929.023438 730.765625 928.414062 730.929688 C 927.800781 731.089844 927.433594 731.71875 927.59375 732.339844 C 933.234375 753.390625 941.730469 773.5625 952.875 792.308594 C 953.089844 792.667969 953.46875 792.863281 953.863281 792.863281 C 954.0625 792.863281 954.269531 792.820312 954.449219 792.703125 C 954.996094 792.378906 955.175781 791.679688 954.855469 791.128906 Z M 1094.613281 829.273438 L 984.53125 829.273438 L 975.070312 796.503906 C 979.207031 795.542969 983.355469 794.625 987.5 793.78125 C 988.121094 793.65625 988.515625 793.042969 988.390625 792.425781 C 988.265625 791.804688 987.652344 791.398438 987.03125 791.527344 C 969.855469 795.039062 952.6875 799.550781 935.996094 804.933594 C 935.390625 805.128906 935.058594 805.777344 935.257812 806.386719 C 935.417969 806.871094 935.867188 807.179688 936.355469 807.179688 C 936.472656 807.179688 936.585938 807.160156 936.703125 807.125 C 949.035156 803.144531 961.632812 799.648438 974.296875 796.683594 L 965.167969 829.273438 L 849.164062 829.273438 L 876.0625 727.710938 L 885.972656 713.226562 C 888.113281 713.507812 890.847656 713.722656 894.230469 713.722656 C 902.394531 713.722656 914.238281 712.457031 930.113281 707.808594 C 984.261719 691.941406 1015.199219 627.078125 1015.496094 626.421875 C 1015.523438 626.386719 1015.515625 626.339844 1015.53125 626.296875 C 1023.664062 629.1875 1077.121094 651.210938 1085.0625 733.796875 C 1087.203125 756.0625 1090.933594 793.152344 1094.613281 829.273438 Z M 777.671875 507.257812 C 773.90625 504.527344 771.628906 499.953125 771.71875 495.308594 C 771.738281 494.671875 771.226562 494.148438 770.59375 494.132812 C 769.949219 494.121094 769.433594 494.625 769.417969 495.261719 C 769.308594 500.644531 771.953125 505.957031 776.316406 509.117188 C 776.523438 509.261719 776.765625 509.335938 776.988281 509.335938 C 777.351562 509.335938 777.699219 509.171875 777.925781 508.867188 C 778.304688 508.347656 778.1875 507.628906 777.671875 507.257812 Z M 826.417969 652.390625 C 811.910156 641.625 793.394531 635.875 784.992188 621.640625 C 773.96875 602.960938 776.925781 579.195312 772.414062 569.203125 C 763.105469 548.652344 758.921875 523.503906 767.609375 502.738281 C 767.296875 502.335938 767 501.941406 766.710938 501.582031 C 762.96875 496.855469 759.652344 491.246094 760 485.226562 C 760.359375 479.152344 764.363281 473.96875 768.132812 469.199219 C 769.210938 468.953125 770.082031 468.757812 771.164062 468.515625 C 775.738281 470.949219 780.300781 474.453125 782.855469 479.367188 C 784.984375 483.492188 786.792969 489.179688 788.257812 494.941406 C 788.269531 494.984375 788.277344 495.019531 788.285156 495.066406 C 788.554688 496.109375 788.808594 497.152344 789.050781 498.183594 C 789.121094 498.507812 789.195312 498.820312 789.265625 499.136719 C 789.4375 499.855469 789.589844 500.554688 789.742188 501.265625 C 789.886719 501.921875 790.019531 502.578125 790.15625 503.222656 C 790.21875 503.539062 790.28125 503.835938 790.34375 504.148438 C 790.695312 505.875 791.019531 507.554688 791.296875 509.082031 C 791.296875 509.054688 791.296875 509.027344 791.296875 508.992188 C 791.28125 508.363281 791.261719 507.726562 791.246094 507.078125 C 791.246094 506.953125 791.246094 506.835938 791.246094 506.71875 C 791.226562 506.117188 791.226562 505.507812 791.21875 504.894531 C 791.21875 504.769531 791.21875 504.644531 791.21875 504.527344 C 791.207031 503.070312 791.21875 501.597656 791.253906 500.117188 C 791.253906 499.988281 791.253906 499.855469 791.261719 499.71875 C 791.273438 499.144531 791.296875 498.5625 791.316406 497.984375 C 791.324219 497.78125 791.335938 497.5625 791.34375 497.355469 C 791.371094 496.835938 791.398438 496.332031 791.433594 495.828125 C 791.441406 495.613281 791.453125 495.398438 791.46875 495.191406 C 791.503906 494.617188 791.550781 494.058594 791.605469 493.511719 C 791.613281 493.375 791.621094 493.25 791.632812 493.117188 C 791.695312 492.433594 791.765625 491.777344 791.847656 491.121094 C 791.863281 490.976562 791.882812 490.84375 791.902344 490.699219 C 791.972656 490.203125 792.035156 489.710938 792.117188 489.234375 C 792.144531 489.027344 792.179688 488.832031 792.214844 488.625 C 792.289062 488.21875 792.367188 487.816406 792.449219 487.429688 C 792.484375 487.230469 792.53125 487.023438 792.574219 486.828125 C 792.65625 486.429688 792.753906 486.042969 792.855469 485.667969 C 792.898438 485.515625 792.933594 485.351562 792.980469 485.199219 C 793.125 484.695312 793.277344 484.203125 793.449219 483.753906 C 793.476562 483.671875 793.511719 483.601562 793.539062 483.519531 C 793.683594 483.160156 793.835938 482.800781 793.988281 482.476562 C 794.058594 482.34375 794.121094 482.21875 794.195312 482.089844 C 794.328125 481.839844 794.472656 481.597656 794.617188 481.382812 C 794.699219 481.253906 794.777344 481.148438 794.859375 481.03125 C 795.011719 480.824219 795.183594 480.636719 795.355469 480.464844 C 795.425781 480.382812 795.507812 480.292969 795.589844 480.214844 C 795.839844 479.988281 796.109375 479.789062 796.390625 479.648438 L 796.398438 479.636719 C 796.703125 479.484375 797.027344 479.277344 797.359375 479.046875 C 797.449219 478.980469 797.539062 478.917969 797.628906 478.855469 C 797.898438 478.648438 798.179688 478.433594 798.464844 478.191406 C 798.539062 478.136719 798.601562 478.082031 798.683594 478.011719 C 799.417969 477.363281 800.210938 476.582031 801.019531 475.703125 C 801.046875 475.675781 801.074219 475.640625 801.101562 475.613281 C 802.792969 473.761719 804.582031 471.488281 806.363281 469.027344 L 806.371094 469.027344 C 810.335938 463.554688 814.257812 457.191406 816.886719 452.761719 C 819.824219 447.785156 824.890625 444.273438 830.644531 443.761719 C 831.058594 443.714844 831.472656 443.695312 831.886719 443.6875 C 837.199219 443.625 853.433594 465.640625 855.863281 468.972656 C 855.46875 469.042969 855.105469 469.304688 854.964844 469.71875 C 848.28125 488.804688 832.019531 504.070312 812.542969 509.542969 C 811.929688 509.710938 811.570312 510.351562 811.742188 510.960938 C 811.882812 511.464844 812.34375 511.796875 812.847656 511.796875 C 812.953125 511.796875 813.054688 511.777344 813.160156 511.75 C 833.359375 506.082031 850.214844 490.257812 857.140625 470.472656 C 857.230469 470.210938 857.203125 469.953125 857.121094 469.710938 C 864.253906 471.894531 871.761719 475.128906 879.363281 479.84375 C 901.882812 493.835938 934.746094 544.960938 961.8125 577.480469 C 971.527344 589.152344 990.339844 600.410156 1004.632812 607.902344 C 1011.199219 611.335938 1014.507812 618.183594 1013.949219 624.929688 C 1013.726562 625.039062 1013.527344 625.207031 1013.417969 625.453125 C 1013.113281 626.089844 982.625 690.027344 929.464844 705.601562 C 923.898438 707.234375 918.878906 708.402344 914.300781 709.273438 C 900.929688 709.195312 897.035156 701.621094 894.03125 695.328125 C 894.34375 693.703125 894.597656 692.058594 894.722656 690.398438 L 905.183594 549.75 C 906.414062 533.191406 895.9375 518.003906 880.011719 513.269531 C 858.398438 506.835938 836.363281 521.984375 834.648438 544.449219 L 827.828125 633.886719 C 818.972656 624.796875 811.183594 614.882812 805.535156 603.546875 C 791.910156 576.195312 792.304688 543.902344 792.65625 515.417969 C 792.664062 514.78125 792.160156 514.257812 791.523438 514.25 C 791.515625 514.25 791.515625 514.25 791.503906 514.25 C 790.875 514.25 790.363281 514.761719 790.355469 515.390625 C 790.003906 544.144531 789.597656 576.722656 803.464844 604.570312 C 809.554688 616.769531 818.007812 627.3125 827.597656 636.933594 Z M 893.195312 698.84375 C 891.953125 703.164062 890.027344 707.28125 887.492188 711.027344 C 891.710938 711.457031 897.988281 711.601562 906.449219 710.53125 C 899.113281 708.429688 895.605469 703.460938 893.195312 698.84375 Z M 839.378906 866.21875 C 820.726562 936.621094 818.738281 1010.390625 833.558594 1081.695312 L 858.109375 1163.730469 L 916.453125 1163.730469 L 918.222656 996.945312 L 956.535156 860.128906 L 840.988281 860.128906 Z M 1154.183594 1164.191406 L 1154.183594 1144.519531 C 1154.183594 1084.789062 1142.71875 1025.601562 1120.40625 970.179688 L 1105.171875 932.324219 C 1105.171875 932.324219 1101.832031 899.976562 1097.757812 860.128906 L 993.445312 860.128906 L 1020.75 954.714844 C 1037.125 1018.46875 1059.367188 1033.527344 1071.382812 1074.921875 L 1098.777344 1164.191406 Z M 1049.699219 472.808594 L 1071.535156 487.175781 C 1072.710938 487.949219 1074.296875 487.625 1075.070312 486.449219 L 1083.558594 473.574219 C 1084.332031 472.394531 1084.007812 470.816406 1082.832031 470.042969 L 1081.515625 469.179688 C 1081.515625 469.179688 1084.863281 457.804688 1089.746094 450.390625 L 1094.109375 453.265625 C 1097.101562 455.234375 1101.125 454.40625 1103.09375 451.414062 L 1107.75 444.351562 L 1118.472656 451.40625 L 1128.839844 435.691406 L 1118.121094 428.636719 L 1122.832031 421.496094 C 1124.765625 418.554688 1123.992188 414.628906 1121.125 412.625 C 1125.675781 405.078125 1136.683594 388.6875 1154.695312 373.027344 C 1155.703125 372.15625 1155.585938 370.636719 1154.527344 370.96875 C 1150.316406 372.292969 1143.132812 374.925781 1135.0625 379.515625 C 1138.652344 375.722656 1142.636719 371.832031 1147.0625 367.996094 C 1148.058594 367.125 1147.941406 365.605469 1146.882812 365.9375 C 1137.914062 368.75 1115.421875 377.539062 1099.683594 398.492188 L 1098.855469 397.953125 C 1095.863281 395.976562 1091.84375 396.804688 1089.871094 399.796875 L 1070.132812 429.714844 C 1068.160156 432.707031 1068.988281 436.734375 1071.984375 438.703125 L 1076.347656 441.566406 C 1071.460938 448.980469 1062.316406 456.539062 1062.316406 456.539062 L 1061.003906 455.675781 C 1059.824219 454.902344 1058.242188 455.226562 1057.46875 456.394531 L 1048.96875 469.277344 C 1048.195312 470.445312 1048.53125 472.027344 1049.699219 472.808594 Z M 574.449219 481.742188 L 569.277344 475.324219 L 575.042969 471.992188 L 594.136719 470.230469 L 589.042969 463.90625 L 578.53125 450.832031 L 513.859375 460.707031 C 509.445312 461.378906 505 459.65625 502.203125 456.179688 L 469.871094 416.003906 C 465.539062 410.621094 466.390625 402.75 471.777344 398.410156 L 196.425781 619.65625 L 235.457031 668.148438 L 259.460938 665.929688 L 253.058594 657.976562 L 255.433594 656.601562 L 279.148438 654.410156 L 272.824219 646.566406 L 275.40625 645.066406 L 298.835938 642.902344 L 292.59375 635.144531 L 295.390625 633.527344 L 318.523438 631.390625 L 312.351562 623.726562 L 315.363281 621.992188 L 338.207031 619.878906 L 332.121094 612.316406 L 335.339844 610.453125 L 357.894531 608.371094 L 351.878906 600.894531 L 355.3125 598.917969 L 377.582031 596.851562 L 371.644531 589.484375 L 375.289062 587.378906 L 397.269531 585.339844 L 391.414062 578.0625 L 395.261719 575.84375 L 416.953125 573.832031 L 411.171875 566.652344 L 415.238281 564.296875 L 436.640625 562.320312 L 430.941406 555.230469 L 435.21875 552.761719 L 456.328125 550.8125 L 450.699219 543.820312 L 455.195312 541.222656 L 476.015625 539.292969 L 470.464844 532.398438 L 475.167969 529.6875 L 495.703125 527.78125 L 490.222656 520.988281 L 495.144531 518.148438 L 515.386719 516.269531 L 509.992188 509.566406 L 515.117188 506.601562 L 535.074219 504.761719 L 529.75 498.15625 L 535.09375 495.066406 L 554.761719 493.25 L 549.519531 486.738281 L 555.066406 483.527344 Z M 600.324219 415.257812 L 611.664062 429.347656 L 613.460938 427.910156 L 543.394531 340.871094 L 541.605469 342.316406 L 552.945312 356.40625 Z M 596.859375 441.246094 L 585.519531 427.144531 L 538.152344 368.292969 L 526.800781 354.203125 L 525.011719 355.652344 L 595.070312 442.683594 Z M 535.6875 429.652344 C 533.285156 431.585938 532.898438 435.097656 534.832031 437.507812 C 536.765625 439.90625 540.292969 440.292969 542.691406 438.359375 C 545.101562 436.429688 545.480469 432.90625 543.546875 430.507812 C 541.613281 428.097656 538.097656 427.722656 535.6875 429.652344 Z M 511 398.976562 C 513.410156 397.046875 513.789062 393.53125 511.855469 391.132812 C 509.921875 388.726562 506.402344 388.347656 503.992188 390.28125 C 501.59375 392.210938 501.207031 395.726562 503.140625 398.132812 C 505.074219 400.53125 508.597656 400.917969 511 398.976562 Z M 800.460938 405.382812 C 800.320312 405.546875 800.292969 405.78125 800.398438 405.976562 C 800.542969 406.230469 800.859375 406.308594 801.109375 406.175781 L 801.191406 406.121094 C 802.046875 405.644531 802.808594 405.195312 803.609375 404.621094 C 804.410156 403.980469 805.347656 403.058594 805.453125 401.59375 C 805.480469 400.898438 805.320312 400.179688 804.851562 399.542969 C 804.429688 398.976562 803.71875 398.617188 803.015625 398.539062 C 803.738281 397.746094 804.574219 397.019531 805.542969 396.425781 C 805.707031 396.335938 805.796875 396.148438 805.761719 395.957031 C 805.707031 395.714844 805.472656 395.5625 805.230469 395.609375 C 803.96875 395.867188 802.746094 396.460938 801.730469 397.316406 C 800.6875 398.152344 799.824219 399.230469 799.238281 400.46875 C 799.050781 400.855469 799.113281 401.339844 799.417969 401.683594 C 799.832031 402.132812 800.535156 402.167969 800.984375 401.753906 L 801.003906 401.746094 C 801.621094 401.179688 802.394531 400.773438 802.71875 400.792969 C 802.882812 400.792969 802.972656 400.828125 803.070312 400.9375 C 803.179688 401.054688 803.285156 401.296875 803.296875 401.546875 C 803.339844 402.003906 803.027344 402.714844 802.433594 403.308594 C 801.792969 403.957031 801.074219 404.675781 800.460938 405.382812 Z M 779.734375 453.347656 C 783.3125 449.851562 786.621094 446.132812 789.5 442.0625 C 792.332031 438.019531 795.128906 433.757812 796.289062 428.753906 C 796.34375 428.492188 796.199219 428.234375 795.949219 428.144531 C 795.679688 428.054688 795.382812 428.199219 795.292969 428.46875 L 795.273438 428.503906 C 793.746094 433.023438 790.832031 437.039062 787.90625 440.886719 C 784.894531 444.6875 781.710938 448.40625 778.175781 451.695312 C 774.75 455.035156 770.613281 457.5 766.171875 459.421875 C 761.753906 461.371094 757.085938 462.835938 752.277344 463.492188 C 752.058594 463.527344 751.890625 463.714844 751.890625 463.941406 C 751.890625 464.183594 752.085938 464.382812 752.328125 464.371094 C 757.347656 464.320312 762.269531 463.058594 766.945312 461.28125 C 771.558594 459.429688 776.125 456.933594 779.734375 453.347656 Z M 752.25 443.175781 C 752.222656 442.878906 751.953125 442.65625 751.65625 442.683594 L 749.136719 442.914062 C 748.320312 442.96875 747.507812 443.042969 746.699219 443.058594 C 745.890625 443.105469 745.082031 443.078125 744.253906 443.085938 L 741.707031 443.015625 C 741.566406 443.003906 741.410156 443.066406 741.320312 443.203125 C 741.167969 443.402344 741.214844 443.6875 741.421875 443.839844 C 742.183594 444.398438 743.066406 444.757812 743.964844 445.007812 C 744.875 445.269531 745.820312 445.359375 746.753906 445.359375 C 747.699219 445.332031 748.640625 445.207031 749.53125 444.910156 C 750.433594 444.632812 751.296875 444.246094 752.042969 443.652344 C 752.175781 443.542969 752.265625 443.363281 752.25 443.175781 Z M 748.824219 439.277344 C 751.644531 438.808594 754.417969 437.992188 757.007812 436.777344 C 759.605469 435.566406 762.042969 434.019531 764.121094 432.089844 C 764.300781 431.925781 764.34375 431.648438 764.203125 431.433594 C 764.058594 431.191406 763.722656 431.109375 763.480469 431.261719 C 761.152344 432.699219 758.734375 433.949219 756.214844 434.902344 C 753.695312 435.84375 751.097656 436.582031 748.445312 437.011719 C 745.792969 437.46875 743.101562 437.613281 740.40625 437.550781 C 737.707031 437.460938 735.007812 437.066406 732.328125 436.453125 C 732.128906 436.410156 731.914062 436.507812 731.824219 436.707031 C 731.726562 436.921875 731.824219 437.191406 732.050781 437.289062 C 734.621094 438.457031 737.417969 439.160156 740.261719 439.484375 C 743.09375 439.824219 745.988281 439.714844 748.824219 439.277344 Z M 744.945312 426.671875 C 744.75 427.128906 744.480469 427.558594 744.164062 428.070312 L 744.136719 428.117188 C 744.066406 428.234375 744.039062 428.367188 744.054688 428.503906 C 744.109375 428.808594 744.398438 429.015625 744.703125 428.960938 C 745.441406 428.835938 746.089844 428.402344 746.601562 427.855469 C 747.132812 427.308594 747.472656 426.589844 747.636719 425.824219 C 747.777344 425.0625 747.742188 424.269531 747.464844 423.5625 C 747.203125 422.859375 746.773438 422.222656 746.140625 421.828125 C 746.050781 421.765625 745.933594 421.738281 745.820312 421.753906 C 745.558594 421.792969 745.386719 422.035156 745.421875 422.292969 L 745.421875 422.332031 C 745.601562 423.523438 745.59375 424.460938 745.386719 425.359375 C 745.296875 425.796875 745.125 426.222656 744.945312 426.671875 Z M 736.960938 406.605469 C 738.136719 405.265625 739.34375 403.957031 740.59375 402.679688 C 740.773438 402.507812 741.050781 402.507812 741.222656 402.679688 C 741.375 402.832031 741.394531 403.066406 741.277344 403.238281 C 740.339844 404.636719 739.371094 406.011719 738.398438 407.371094 C 739 407.691406 739.605469 408.035156 740.234375 408.386719 C 745.253906 411.1875 750.9375 414.371094 758.300781 414.835938 C 769.410156 415.546875 775.171875 410.585938 779.796875 406.605469 C 780.640625 405.878906 781.441406 405.1875 782.214844 404.585938 C 784.257812 402.992188 786.34375 401.691406 788.347656 400.621094 C 788.402344 398.644531 788.5 396.488281 788.601562 394.351562 C 788.761719 390.917969 787.898438 387.636719 786.296875 384.699219 C 768.777344 382.777344 738.910156 380.65625 712.453125 384.503906 C 711.003906 394.558594 710.628906 410.128906 715.574219 411.628906 C 719.179688 412.726562 720.492188 411.082031 722.300781 408.808594 C 723.894531 406.792969 725.710938 404.511719 729.34375 404.339844 C 729.46875 404.332031 729.601562 404.332031 729.738281 404.332031 C 732.03125 404.332031 734.398438 405.285156 736.960938 406.605469 Z M 732.480469 428.710938 C 730.925781 428.269531 729.398438 427.398438 728.371094 425.925781 C 727.300781 424.449219 727.191406 422.472656 727.5625 420.882812 C 727.921875 419.257812 728.625 417.828125 729.40625 416.507812 C 731.042969 413.972656 732.761719 411.558594 734.65625 409.273438 C 734.902344 408.976562 735.160156 408.691406 735.414062 408.402344 C 733.210938 407.296875 731.214844 406.5625 729.449219 406.640625 C 726.859375 406.769531 725.582031 408.375 724.097656 410.234375 C 722.183594 412.644531 720.007812 415.375 714.898438 413.832031 C 706.257812 411.207031 709.863281 386.164062 710.304688 383.316406 L 710.429688 382.480469 L 711.265625 382.355469 C 737.273438 378.4375 766.664062 380.324219 784.707031 382.230469 C 783.914062 381.160156 783.015625 380.152344 782.015625 379.238281 C 780.128906 377.492188 778.609375 375.257812 777.628906 372.921875 C 770.550781 373.109375 763.222656 369.039062 757.753906 364.546875 C 751.78125 368.761719 745.753906 373.011719 739.074219 375.976562 C 732.382812 378.949219 725.492188 380.054688 718.28125 378.804688 C 712.9375 373.253906 710.070312 365.410156 710.546875 357.726562 C 711.023438 350.042969 714.855469 342.621094 720.835938 337.769531 C 724.757812 334.589844 730.277344 332.496094 734.847656 334.652344 C 741 323.996094 754.199219 317.902344 766.316406 320.140625 L 762.035156 326.421875 C 770.660156 323.941406 780.730469 328.09375 785.09375 335.917969 C 789.894531 333.269531 795.757812 332.621094 801.019531 334.175781 C 806.28125 335.722656 810.867188 339.449219 813.449219 344.285156 C 815.921875 348.902344 816.957031 354.824219 821.472656 357.5 C 823.332031 358.597656 825.636719 359.011719 827.183594 360.519531 C 829.953125 363.226562 828.964844 367.808594 827.777344 371.5 C 825.976562 377.0625 824.179688 382.632812 822.390625 388.195312 C 821.28125 391.601562 824.3125 396.75 826.8125 399.320312 C 827.578125 400.101562 828.46875 400.820312 828.910156 401.816406 C 829.359375 402.8125 829.160156 404.226562 828.164062 404.675781 C 827.199219 405.105469 825.851562 404.53125 825.140625 405.304688 C 824.457031 406.039062 825.03125 407.207031 825.636719 408 C 826.480469 409.121094 827.390625 410.234375 827.910156 411.539062 C 828.441406 412.839844 828.53125 414.40625 827.785156 415.601562 C 827.03125 416.796875 825.285156 417.371094 824.132812 416.570312 C 825.285156 417.730469 826.464844 418.925781 827.082031 420.441406 C 827.703125 421.960938 827.625 423.882812 826.453125 425.027344 C 824.609375 426.839844 822.363281 424.964844 820.050781 423.792969 C 821.371094 426.886719 822.480469 430.066406 823.371094 433.308594 C 823.613281 434.199219 823.828125 435.195312 823.351562 435.980469 C 822.765625 436.96875 821.398438 437.128906 820.277344 436.90625 C 819.152344 436.679688 818.117188 435.386719 816.976562 435.441406 C 818.960938 438.539062 819.96875 441.746094 819.925781 445.421875 C 808.414062 439.609375 800.734375 425.914062 800.390625 413.039062 C 804.789062 412.097656 808.953125 409.605469 811.300781 405.789062 C 813.648438 401.960938 813.871094 396.757812 811.328125 393.066406 C 810.355469 391.65625 808.945312 390.460938 807.261719 390.117188 C 804.652344 389.597656 802.082031 391.222656 800.210938 393.117188 C 798.339844 395.007812 795.023438 406.203125 792.746094 407.578125 C 791.515625 407.476562 789.707031 406.730469 788.484375 406.632812 C 788.375 405.699219 788.332031 404.546875 788.320312 403.28125 C 786.765625 404.160156 785.183594 405.1875 783.628906 406.398438 C 782.878906 406.984375 782.117188 407.648438 781.296875 408.347656 C 776.917969 412.121094 771.007812 417.207031 760.386719 417.207031 C 759.667969 417.207031 758.921875 417.183594 758.15625 417.136719 C 750.269531 416.625 744.082031 413.164062 739.109375 410.390625 C 738.398438 409.992188 737.722656 409.617188 737.050781 409.257812 C 736.769531 409.652344 736.484375 410.046875 736.203125 410.453125 C 734.53125 412.832031 732.824219 415.222656 731.375 417.695312 C 729.898438 420.019531 728.847656 422.796875 730.082031 424.828125 C 731.3125 426.957031 734.253906 427.722656 737.105469 427.953125 C 737.390625 427.980469 737.609375 428.234375 737.582031 428.519531 C 737.5625 428.773438 737.355469 428.96875 737.105469 428.996094 L 737.09375 428.996094 C 735.601562 429.125 734.046875 429.097656 732.480469 428.710938 Z M 729.332031 389.066406 C 728.226562 388.734375 727.078125 388.574219 725.933594 388.6875 C 724.800781 388.789062 723.667969 389.09375 722.722656 389.714844 C 722.570312 389.820312 722.472656 390 722.480469 390.199219 C 722.5 390.496094 722.75 390.71875 723.046875 390.703125 L 723.066406 390.703125 C 724.0625 390.640625 725.007812 390.621094 725.941406 390.71875 C 726.871094 390.835938 727.777344 390.988281 728.660156 391.257812 C 729.539062 391.511719 730.386719 391.878906 731.222656 392.300781 C 732.058594 392.734375 732.832031 393.273438 733.625 393.902344 L 733.640625 393.910156 C 733.757812 394.007812 733.929688 394.042969 734.082031 393.980469 C 734.316406 393.890625 734.433594 393.632812 734.34375 393.398438 C 733.9375 392.335938 733.199219 391.429688 732.328125 390.703125 C 731.457031 389.949219 730.414062 389.425781 729.332031 389.066406 Z M 759.984375 390.621094 L 760 390.621094 C 761.015625 390.566406 761.972656 390.566406 762.90625 390.675781 C 763.832031 390.800781 764.742188 390.972656 765.621094 391.257812 C 766.503906 391.527344 767.339844 391.90625 768.160156 392.335938 C 768.984375 392.777344 769.742188 393.324219 770.523438 393.953125 L 770.542969 393.964844 C 770.683594 394.082031 770.882812 394.117188 771.070312 394.042969 C 771.351562 393.9375 771.484375 393.621094 771.378906 393.351562 C 770.957031 392.292969 770.199219 391.386719 769.320312 390.65625 C 768.4375 389.921875 767.386719 389.398438 766.296875 389.066406 C 765.191406 388.753906 764.039062 388.597656 762.898438 388.734375 C 761.765625 388.851562 760.648438 389.164062 759.714844 389.792969 C 759.585938 389.875 759.496094 390.027344 759.507812 390.199219 C 759.523438 390.441406 759.742188 390.640625 759.984375 390.621094 Z M 727.464844 395.007812 C 724.691406 396.074219 724.890625 399.796875 727.21875 401.222656 C 727.957031 401.671875 728.910156 401.898438 729.703125 401.539062 C 730.476562 401.195312 730.933594 400.398438 731.214844 399.597656 C 732.078125 397.082031 730.476562 393.847656 727.464844 395.007812 Z M 765.839844 395.777344 C 763.066406 396.839844 763.265625 400.558594 765.59375 401.988281 C 766.332031 402.4375 767.277344 402.660156 768.070312 402.3125 C 768.851562 401.960938 769.308594 401.160156 769.578125 400.359375 C 770.441406 397.855469 768.851562 394.621094 765.839844 395.777344 Z M 804.484375 1231.8125 C 803.261719 1235.917969 802.628906 1240.628906 802.800781 1246.082031 L 882.355469 1246.082031 L 884.390625 1242.621094 C 885.980469 1239.917969 888.886719 1238.253906 892.023438 1238.253906 L 895.246094 1246.082031 L 915.507812 1246.082031 L 914.09375 1231.8125 Z M 1158.449219 1231.8125 L 1080.222656 1231.8125 C 1079.339844 1235.917969 1078.910156 1240.628906 1079.070312 1246.082031 L 1137.636719 1246.082031 L 1139.667969 1242.621094 C 1141.261719 1239.917969 1144.164062 1238.253906 1144.191406 1238.253906 L 1144.886719 1246.082031 L 1159.867188 1246.082031 Z M 630.65625 798.238281 C 630.65625 787.339844 621.789062 778.480469 610.890625 778.480469 C 599.980469 778.480469 591.113281 787.339844 591.113281 798.238281 C 591.113281 809.136719 599.980469 817.996094 610.890625 817.996094 C 621.789062 817.996094 630.65625 809.136719 630.65625 798.238281 Z M 610.890625 820.296875 C 598.710938 820.296875 588.8125 810.402344 588.8125 798.238281 C 588.8125 786.070312 598.710938 776.179688 610.890625 776.179688 C 623.058594 776.179688 632.960938 786.070312 632.960938 798.238281 C 632.960938 810.402344 623.058594 820.296875 610.890625 820.296875 Z M 658.988281 798.238281 C 658.988281 810.082031 654.6875 820.898438 647.582031 829.273438 L 624.957031 829.273438 C 636.773438 823.917969 645.011719 812.046875 645.011719 798.238281 C 645.011719 779.40625 629.730469 764.140625 610.890625 764.140625 C 592.039062 764.140625 576.757812 779.40625 576.757812 798.238281 C 576.757812 812.046875 584.996094 823.917969 596.816406 829.273438 L 574.1875 829.273438 C 567.082031 820.898438 562.785156 810.082031 562.785156 798.238281 C 562.785156 771.695312 584.3125 750.175781 610.890625 750.175781 C 637.457031 750.175781 658.988281 771.695312 658.988281 798.238281 "/>
</g>
</g>
</defs>
<g id="surface1">
<use xlink:href="#surface5"/>
</g>
</svg>
